<svg width="18" height="14" viewBox="0 0 18 14" fill="none" xmlns="http://www.w3.org/2000/svg">
    <path d="M0.786701 5.51178C1.01599 5.27529 1.32693 5.14243 1.65115 5.14243C1.97537 5.14243 2.28631 5.27529 2.5156 5.51178L6.83907 9.97233L15.4836 1.05248C15.5971 0.93528 15.7319 0.842293 15.8802 0.778831C16.0286 0.715369 16.1876 0.682676 16.3482 0.682617C16.5088 0.682559 16.6678 0.715136 16.8162 0.77849C16.9646 0.841843 17.0995 0.934732 17.2131 1.05185C17.3267 1.16897 17.4168 1.30803 17.4783 1.46109C17.5398 1.61415 17.5715 1.7782 17.5716 1.9439C17.5716 2.10959 17.54 2.27367 17.4786 2.42677C17.4172 2.57987 17.3272 2.719 17.2137 2.8362L6.83907 13.5398L0.786701 7.29549C0.55748 7.05893 0.428711 6.73813 0.428711 6.40363C0.428711 6.06914 0.55748 5.74834 0.786701 5.51178Z" fill="white"/>
</svg>
