<svg width="14" height="24" viewBox="0 0 14 24"  xmlns="http://www.w3.org/2000/svg">
    <path  d="M13.0613 21.05C13.3431 21.3318 13.5014 21.7139 13.5014 22.1125C13.5014 22.511 13.3431 22.8932 13.0613 23.175C12.7795 23.4568 12.3973 23.6151 11.9988 23.6151C11.6003 23.6151 11.2181 23.4568 10.9363 23.175L0.936299 13.175C0.796459 13.0356 0.685505 12.87 0.609797 12.6877C0.534088 12.5054 0.495117 12.3099 0.495117 12.1125C0.495117 11.915 0.534088 11.7196 0.609797 11.5372C0.685505 11.3549 0.796459 11.1893 0.936299 11.05L10.9363 1.04996C11.2181 0.768172 11.6003 0.609863 11.9988 0.609863C12.3973 0.609863 12.7795 0.768173 13.0613 1.04997C13.3431 1.33176 13.5014 1.71395 13.5014 2.11246C13.5014 2.51098 13.3431 2.89317 13.0613 3.17496L4.12505 12.1112L13.0613 21.05Z" fill="#1DBF73"/>
</svg>
