<svg width="22" height="22" viewBox="0 0 22 22" fill="none" xmlns="http://www.w3.org/2000/svg">
    <path d="M5.41618 21.8956H0.897629V7.67545H5.41618V21.8956ZM3.15691 5.68197C1.69502 5.68197 0.631836 4.61879 0.631836 3.1569C0.631836 1.69502 1.82792 0.631836 3.15691 0.631836C4.61879 0.631836 5.68198 1.69502 5.68198 3.1569C5.68198 4.61879 4.61879 5.68197 3.15691 5.68197ZM21.8956 21.8956H17.377V14.1875C17.377 11.9282 16.4467 11.2637 15.1177 11.2637C13.7888 11.2637 12.4598 12.3269 12.4598 14.3204V21.8956H7.94125V7.67545H12.194V9.66892C12.5927 8.73864 14.1875 7.27675 16.4467 7.27675C18.9718 7.27675 21.6298 8.73864 21.6298 13.1243V21.8956H21.8956Z" fill="white"/>
</svg>
