<svg width="24" height="20" viewBox="0 0 24 20" fill="none" xmlns="http://www.w3.org/2000/svg">
    <path d="M23.375 6.54688C23.375 13.6563 12.8338 19.4108 12.3849 19.6484C12.2666 19.7121 12.1344 19.7454 12 19.7454C11.8656 19.7454 11.7334 19.7121 11.6151 19.6484C11.1662 19.4108 0.625 13.6563 0.625 6.54688C0.626882 4.87742 1.2909 3.27688 2.47139 2.09639C3.65188 0.915905 5.25242 0.251882 6.92188 0.25C9.01914 0.25 10.8554 1.15187 12 2.67633C13.1446 1.15187 14.9809 0.25 17.0781 0.25C18.7476 0.251882 20.3481 0.915905 21.5286 2.09639C22.7091 3.27688 23.3731 4.87742 23.375 6.54688Z" fill="#FF5353"/>
</svg>
