<svg width="18" height="18" viewBox="0 0 18 18" fill="none" xmlns="http://www.w3.org/2000/svg">
	<path
		d="M17.3203 7.93596L13.7969 11.011L14.8524 15.5891C14.9082 15.8284 14.8923 16.0789 14.8065 16.3092C14.7208 16.5396 14.5691 16.7395 14.3703 16.8841C14.1716 17.0286 13.9346 17.1114 13.6891 17.122C13.4436 17.1326 13.2004 17.0706 12.9899 16.9438L8.99689 14.5219L5.01252 16.9438C4.80203 17.0706 4.55881 17.1326 4.31328 17.122C4.06775 17.1114 3.83079 17.0286 3.63204 16.8841C3.4333 16.7395 3.28157 16.5396 3.19584 16.3092C3.1101 16.0789 3.09417 15.8284 3.15002 15.5891L4.20392 11.0157L0.679705 7.93596C0.493305 7.7752 0.358519 7.56298 0.292249 7.32592C0.225978 7.08886 0.231173 6.83751 0.307183 6.60339C0.383193 6.36927 0.526633 6.16281 0.719516 6.00988C0.912399 5.85696 1.14614 5.76439 1.39142 5.74378L6.03674 5.34143L7.85002 1.01643C7.94471 0.789493 8.10443 0.595642 8.30907 0.459291C8.51371 0.322939 8.75412 0.250183 9.00002 0.250183C9.24592 0.250183 9.48633 0.322939 9.69097 0.459291C9.89561 0.595642 10.0553 0.789493 10.15 1.01643L11.9688 5.34143L16.6125 5.74378C16.8578 5.76439 17.0915 5.85696 17.2844 6.00988C17.4773 6.16281 17.6208 6.36927 17.6968 6.60339C17.7728 6.83751 17.778 7.08886 17.7117 7.32592C17.6454 7.56298 17.5106 7.7752 17.3242 7.93596H17.3203Z"
		fill="#FFCB31" />
</svg>