<svg width="22" height="18" viewBox="0 0 22 18" fill="none" xmlns="http://www.w3.org/2000/svg">
    <path d="M21.5001 2.61872C20.7027 3.01741 19.9053 3.15031 18.975 3.28321C19.9053 2.75162 20.5698 1.95423 20.8356 0.891041C20.0382 1.42263 19.1079 1.68843 18.0447 1.95423C17.2473 1.15684 16.0512 0.625244 14.8551 0.625244C12.0643 0.625244 9.93791 3.28321 10.6024 5.94118C7.01414 5.80828 3.82458 4.0806 1.56531 1.42263C0.369227 3.41611 1.03372 5.94118 2.8943 7.27016C2.2298 7.27016 1.56531 7.00437 0.90082 6.73857C0.90082 8.73204 2.3627 10.5926 4.35618 11.1242C3.69169 11.2571 3.02719 11.39 2.3627 11.2571C2.8943 12.9848 4.48908 14.3138 6.48255 14.3138C4.88777 15.5099 2.4956 16.1744 0.236328 15.9086C2.2298 17.1046 4.48908 17.902 6.88125 17.902C14.988 17.902 19.5066 11.1242 19.2408 4.87799C20.1711 4.3464 20.9685 3.54901 21.5001 2.61872Z" fill="white"/>
</svg>
