<svg width="22" height="22" viewBox="0 0 22 22" fill="none" xmlns="http://www.w3.org/2000/svg">
    <path fill-rule="evenodd" clip-rule="evenodd" d="M18.4423 3.6885C16.4489 1.69502 13.7909 0.631836 11 0.631836C5.1525 0.631836 0.368164 5.41618 0.368164 11.2637C0.368164 13.1243 0.899766 14.9849 1.83005 16.5796L0.368164 21.8956L5.94991 20.4337C7.54469 21.2311 9.27235 21.7627 11 21.7627C16.8476 21.7627 21.6319 16.9783 21.6319 11.1308C21.6319 8.33994 20.4358 5.68197 18.4423 3.6885ZM11 20.035C9.40525 20.035 7.81048 19.6363 6.4815 18.8389L6.21568 18.706L2.89322 19.6363L3.82353 16.4467L3.55772 16.048C2.62743 14.5862 2.22873 12.9914 2.22873 11.3966C2.22873 6.61226 6.21569 2.62531 11 2.62531C13.3922 2.62531 15.5186 3.5556 17.2463 5.15038C18.9739 6.87806 19.7713 9.00443 19.7713 11.3966C19.7713 16.048 15.9173 20.035 11 20.035ZM15.7844 13.3901C15.5186 13.2572 14.1896 12.5927 13.9238 12.5927C13.658 12.4598 13.5251 12.4598 13.3922 12.7256C13.2593 12.9914 12.7277 13.523 12.5948 13.7888C12.4619 13.9217 12.329 13.9217 12.0632 13.9217C11.7974 13.7888 11 13.523 9.93686 12.5927C9.13947 11.9282 8.60787 10.9979 8.47497 10.7321C8.34207 10.4663 8.47498 10.3334 8.60788 10.2005C8.74078 10.0676 8.87366 9.93472 9.00656 9.80182C9.13946 9.66892 9.13947 9.53603 9.27237 9.40313C9.40527 9.27023 9.27237 9.13733 9.27237 9.00443C9.27237 8.87153 8.74077 7.54255 8.47497 7.01096C8.34207 6.61226 8.07628 6.61226 7.94339 6.61226C7.81049 6.61226 7.67756 6.61226 7.41176 6.61226C7.27886 6.61226 7.01307 6.61226 6.74727 6.87806C6.48147 7.14386 5.817 7.80835 5.817 9.13733C5.817 10.4663 6.74728 11.6624 6.88018 11.9282C7.01307 12.0611 8.74074 14.852 11.3987 15.9151C13.658 16.8454 14.0567 16.5796 14.5883 16.5796C15.1199 16.5796 16.1831 15.9151 16.316 15.3836C16.5818 14.7191 16.5818 14.1875 16.4489 14.1875C16.316 13.523 16.0502 13.523 15.7844 13.3901Z" fill="white"/>
</svg>
