<svg width="21" height="40" viewBox="0 0 21 40" fill="none" xmlns="http://www.w3.org/2000/svg">
<path d="M20.0278 38.4657L9.41358 20.7514C9.34033 20.6457 9.23926 20.4671 9.11182 20.2185C8.98438 19.97 8.91992 19.7914 8.91992 19.6857C8.91992 19.6143 9.00196 19.4371 9.16602 19.1514C9.33008 18.8671 9.44873 18.69 9.52197 18.6171L19.6982 1.59712C19.8433 1.34855 19.8799 1.16998 19.8081 1.06283C19.7349 0.957118 19.644 0.902832 19.5342 0.902832H11.2183C11.0718 0.902832 10.9619 0.955689 10.8901 1.06283C10.8169 1.16998 10.7612 1.25855 10.7261 1.32997L2.46436 15.8957C2.09961 16.5714 1.80811 17.1228 1.58838 17.55C1.37012 17.9771 1.20606 18.3414 1.09619 18.6443C0.98633 18.9471 0.91309 19.1785 0.877933 19.3385C0.841312 19.4985 0.82373 19.65 0.82373 19.7914C0.82373 20.61 1.37012 21.9443 2.46436 23.7928L7.5166 32.5814L11.0527 38.7328C11.0894 38.8043 11.1436 38.8928 11.2168 39C11.2446 39.04 11.2798 39.0685 11.3193 39.0928C11.3384 39.1043 11.3574 39.1171 11.3779 39.1257H19.9912C20.044 39.1 20.0923 39.0614 20.1333 39C20.2065 38.8928 20.1685 38.7157 20.0234 38.4657H20.0278Z" fill="#1DBF73"/>
</svg>
